<svg width="580" height="400" xmlns="http://www.w3.org/2000/svg">
 <!-- Created with Method Draw - http://github.com/duopixel/Method-Draw/ -->
 <defs>
  <linearGradient id="svg_45" y2="NaN" y1="NaN" x1="0%">
   <stop offset="0%" stop-color="#C40000"/>
   <stop offset="100%" stop-color="#F00"/>
  </linearGradient>
  <linearGradient id="svg_46" y2="NaN" y1="NaN" x1="0%">
   <stop offset="0%" stop-color="#C40000"/>
   <stop offset="100%" stop-color="#F00"/>
  </linearGradient>
  <linearGradient id="svg_47" y2="NaN" y1="NaN" x1="0%">
   <stop offset="0%" stop-color="#C40000"/>
   <stop offset="100%" stop-color="#F00"/>
  </linearGradient>
  <linearGradient id="svg_48" y2="NaN" y1="NaN" x1="0%">
   <stop offset="0%" stop-color="#4F4F4F"/>
   <stop offset="100%"/>
  </linearGradient>
  <linearGradient id="svg_49" y2="NaN" y1="NaN" x1="0%">
   <stop offset="0%" stop-color="#4F4F4F"/>
   <stop offset="100%"/>
  </linearGradient>
 </defs>
 <g>
  <title>background</title>
  <rect fill="#fff" id="canvas_background" height="402" width="582" y="-1" x="-1"/>
  <g display="none" overflow="visible" y="0" x="0" height="100%" width="100%" id="canvasGrid">
   <rect fill="url(#gridpattern)" stroke-width="0" y="0" x="0" height="100%" width="100%"/>
  </g>
 </g>
 <g>
  <title>Layer 1</title>
  <g stroke="null" id="svg_20">
   <g stroke="#000000" transform="matrix(0.4570386984912173,0,0,0.4437620208786247,-1112.9066978809424,-717.8072290262426) " fill-rule="nonzero" clip-rule="nonzero" stroke-miterlimit="4" id="svg_6"/>
   <g stroke="#FFFFFF" transform="matrix(0.4570386984912173,0,0,0.4437620208786247,-1112.9066978809424,-717.8072290262426) " fill-rule="nonzero" clip-rule="nonzero" fill="none" stroke-width="12.4651" stroke-linecap="round" stroke-linejoin="round" stroke-miterlimit="4" id="svg_5">
    <path stroke="#000000" id="svg_8" fill="#000000" stroke-width="37.3953" d="m3164.033461,1997.281993c2.833,-23.601 1.984,-27.062 19.563,-23.239l4.463,0.392c13.517,0.615 31.199,-2.174 41.587,-7c22.362,-10.376 35.622,-27.7 13.572,-23.148c-50.297,10.376 -53.755,-6.655 -53.755,-6.655c53.111,-78.803 75.313,-178.836 56.149,-203.322c-52.27,-66.789 -142.748,-35.206 -144.262,-34.386l-0.482,0.089c-9.938,-2.062 -21.06,-3.294 -33.554,-3.496c-22.761,-0.374 -40.032,5.967 -53.133,15.904c0,0 -161.408,-66.498 -153.899,83.628c1.597,31.936 45.777,241.655 98.47,178.31c19.259,-23.163 37.871,-42.748 37.871,-42.748c9.242,6.14 20.307,9.272 31.912,8.147l0.897,-0.765c-0.281,2.876 -0.157,5.689 0.359,9.019c-13.572,15.167 -9.584,17.83 -36.723,23.416c-27.457,5.659 -11.326,15.734 -0.797,18.367c12.768,3.193 42.305,7.716 62.268,-20.224l-0.795,3.188c5.325,4.26 4.965,30.619 5.72,49.452c0.756,18.834 2.017,36.409 5.856,46.771c3.839,10.36 8.369,37.05 44.036,29.406c29.809,-6.388 52.6,-15.582 54.677,-101.107"/>
    <path id="svg_9" fill="#336791" d="m3243.223461,1944.284993c-50.302,10.376 -53.76,-6.655 -53.76,-6.655c53.111,-78.808 75.313,-178.843 56.153,-203.326c-52.27,-66.785 -142.752,-35.2 -144.262,-34.38l-0.486,0.087c-9.938,-2.063 -21.06,-3.292 -33.56,-3.496c-22.761,-0.373 -40.026,5.967 -53.127,15.902c0,0 -161.411,-66.495 -153.904,83.63c1.597,31.938 45.776,241.657 98.471,178.312c19.26,-23.163 37.869,-42.748 37.869,-42.748c9.243,6.14 20.308,9.272 31.908,8.147l0.901,-0.765c-0.28,2.876 -0.152,5.689 0.361,9.019c-13.575,15.167 -9.586,17.83 -36.723,23.416c-27.459,5.659 -11.328,15.734 -0.796,18.367c12.768,3.193 42.307,7.716 62.266,-20.224l-0.796,3.188c5.319,4.26 9.054,27.711 8.428,48.969c-0.626,21.259 -1.044,35.854 3.147,47.254c4.191,11.4 8.368,37.05 44.042,29.406c29.809,-6.388 45.256,-22.942 47.405,-50.555c1.525,-19.631 4.976,-16.729 5.194,-34.28l2.768,-8.309c3.192,-26.611 0.507,-35.196 18.872,-31.203l4.463,0.392c13.517,0.615 31.208,-2.174 41.591,-7c22.358,-10.376 35.618,-27.7 13.573,-23.148l0.002,0z"/>
    <path stroke="null" id="svg_10" d="m3056.694461,1959.538993c-1.385,49.516 0.348,99.377 5.193,111.495c4.848,12.118 15.223,35.688 50.9,28.045c29.806,-6.39 40.651,-18.756 45.357,-46.051c3.466,-20.082 10.148,-75.854 11.005,-87.281"/>
    <path stroke="null" id="svg_11" d="m3013.932461,1711.310993c0,0 -161.521,-66.016 -154.012,84.109c1.597,31.938 45.779,241.664 98.473,178.316c19.256,-23.166 36.671,-41.335 36.671,-41.335"/>
    <path stroke="null" id="svg_12" d="m3101.177461,1699.261993c-5.591,1.753 89.848,-34.889 144.087,34.417c19.159,24.484 -3.043,124.519 -56.153,203.329"/>
    <path stroke="null" id="svg_13" stroke-linejoin="bevel" d="m3189.110461,1937.007993c0,0 3.461,17.036 53.764,6.653c22.04,-4.552 8.776,12.774 -13.577,23.155c-18.345,8.514 -59.474,10.696 -60.146,-1.069c-1.729,-30.355 21.647,-21.133 19.96,-28.739c-1.525,-6.85 -11.979,-13.573 -18.894,-30.338c-6.037,-14.633 -82.796,-126.849 21.287,-110.183c3.813,-0.789 -27.146,-99.002 -124.553,-100.599c-97.385,-1.597 -94.19,119.762 -94.19,119.762"/>
    <path stroke="null" id="svg_14" d="m3029.432461,1947.388993c-13.577,15.166 -9.584,17.829 -36.723,23.417c-27.459,5.66 -11.326,15.733 -0.797,18.365c12.768,3.195 42.307,7.718 62.266,-20.229c6.078,-8.509 -0.036,-22.086 -8.385,-25.547c-4.034,-1.671 -9.428,-3.765 -16.361,3.994z"/>
    <path stroke="null" id="svg_15" d="m3028.543461,1947.123993c-1.368,-8.917 2.93,-19.528 7.536,-31.942c6.922,-18.626 22.893,-37.255 10.117,-96.339c-9.523,-44.029 -73.396,-9.163 -73.436,-3.193c-0.039,5.968 2.889,30.26 -1.067,58.548c-5.162,36.913 23.488,68.132 56.479,64.938"/>
    <path stroke="null" id="svg_16" fill="#FFFFFF" stroke-width="4.155" d="m3013.345461,1814.754993c-0.288,2.039 3.733,7.48 8.976,8.207c5.234,0.73 9.714,-3.522 9.998,-5.559c0.284,-2.039 -3.732,-4.285 -8.977,-5.015c-5.237,-0.731 -9.719,0.333 -9.996,2.367l-0.001,0z"/>
    <path stroke="null" id="svg_17" fill="#FFFFFF" stroke-width="2.0775" d="m3172.769461,1810.597993c0.284,2.039 -3.732,7.48 -8.976,8.207c-5.238,0.73 -9.718,-3.522 -10.005,-5.559c-0.277,-2.039 3.74,-4.285 8.979,-5.015c5.239,-0.73 9.718,0.333 10.002,2.368l0,-0.001z"/>
    <path stroke="null" id="svg_18" d="m3191.504461,1796.486993c0.863,15.994 -3.445,26.888 -3.988,43.914c-0.804,24.748 11.799,53.074 -7.191,81.435"/>
    <path stroke="null" id="svg_19" stroke-width="3" d="m2840.828461,1733.286993"/>
   </g>
  </g>
  <metadata transform="matrix(0.016954208775940893,0,0,0.016954208775940893,0,0) ">Created by potrace 1.15, written by Peter Selinger 2001-2017</metadata>
  <g stroke="null" id="svg_28">
   <g id="svg_24" fill="#000000" transform="matrix(0.02370857655046068,0,0,-0.024322521562076524,-3916.336116134312,-2338.1957603588426) ">
    <path stroke="null" id="svg_25" d="m172268.83065,-103498.844238c-19,-2 -80,-9 -135,-14c-782,-82 -1552,-413 -2180,-939c-116,-96 -380,-360 -476,-476c-520,-621 -824,-1318 -936,-2143c-25,-183 -25,-801 0,-984c112,-825 416,-1522 936,-2143c96,-116 360,-380 476,-476c621,-520 1318,-824 2143,-936c183,-25 801,-25 984,0c825,112 1522,416 2143,936c116,96 380,360 476,476c520,621 824,1318 936,2143c25,183 25,801 0,984c-112,825 -416,1522 -936,2143c-96,116 -360,380 -476,476c-619,518 -1323,826 -2137,935c-88,12 -216,17 -453,19c-181,2 -346,1 -365,-1zm50,-432c0,-117 8,-371 19,-612c6,-118 13,-287 16,-375c11,-312 44,-1131 49,-1204l5,-73l-45,5c-25,2 -48,8 -52,11c-3,4 -10,73 -14,154c-18,356 -77,1737 -83,1939l-6,222l28,4c15,2 40,5 56,6l27,1l0,-78zm957,24c1,-1 4,-303 7,-671c4,-369 9,-700 12,-736c3,-37 2,-69 -3,-71c-4,-3 -29,-3 -54,0l-46,4l-7,291c-4,161 -9,339 -11,397c-8,177 -15,778 -9,793c4,11 15,12 57,5c29,-6 53,-11 54,-12zm-2313,-335c6,-9 53,-560 111,-1281c19,-245 38,-469 41,-497c5,-51 4,-53 -28,-73c-18,-11 -36,-20 -40,-20c-3,0 -9,26 -12,58c-14,130 -68,758 -106,1212c-22,267 -42,506 -45,532c-5,44 -4,48 22,62c32,17 50,20 57,7zm2753,-201c28,-10 31,-15 37,-72c10,-100 7,-578 -4,-578c-29,0 -89,34 -94,53c-3,12 -6,154 -6,315c0,325 -4,306 67,282zm-1847,-47c0,-27 7,-176 15,-333c8,-157 17,-356 21,-442c7,-174 9,-168 -58,-172c-33,-1 -33,-1 -35,49c-2,28 -7,115 -13,195c-5,80 -17,253 -25,385c-8,132 -18,263 -21,291c-6,50 -5,52 22,62c16,6 44,11 62,11c32,1 32,1 32,-46zm2774,-137l34,-14l7,-134c3,-73 5,-231 3,-350l-3,-218l-42,21l-42,20l-3,332c-2,183 -1,338 1,345c4,15 4,15 45,-2zm-1826,-131c6,-6 20,-491 21,-737l1,-148l-47,7c-27,3 -49,6 -50,7c-3,2 -33,743 -33,815l0,74l51,-6c29,-4 54,-9 57,-12zm2303,-71c12,-14 14,-233 17,-1441c3,-1387 3,-1423 -15,-1423c-11,0 -26,6 -35,13c-15,11 -17,132 -22,1317c-4,718 -9,1370 -12,1449l-6,144l29,-21c17,-12 36,-29 44,-38zm-897,-205c5,-4 10,-61 11,-126c5,-221 6,-1576 1,-1580c-2,-2 -20,3 -40,11l-36,15l0,851l0,850l28,-6c15,-4 31,-10 36,-15zm-2760,-56c3,-27 8,-88 11,-138c3,-49 10,-161 16,-248c12,-176 10,-187 -47,-187c-30,0 -34,3 -38,33c-10,59 -45,551 -40,559c5,7 57,25 81,27c6,1 14,-20 17,-46zm-1654,-255c11,-106 33,-328 49,-493c17,-165 31,-305 31,-311c0,-12 -77,-50 -85,-42c-5,5 -105,890 -105,930c0,24 77,125 87,114c3,-2 13,-91 23,-198zm3921,-105l29,-17l1,-216c1,-118 3,-250 3,-293c2,-90 -9,-105 -63,-86l-31,11l0,86c0,48 -3,187 -7,310l-6,222l23,0c12,0 35,-8 51,-17zm-3482,-388c18,-192 47,-516 66,-720l34,-370l-39,-39l-38,-39l-7,79c-4,44 -24,248 -45,454c-21,206 -51,505 -66,664l-28,288l39,36c35,33 39,34 46,16c4,-10 21,-176 38,-369zm-749,-121c22,-197 80,-721 130,-1164c50,-443 97,-870 106,-950c8,-80 22,-201 30,-270c14,-117 14,-125 -2,-137c-24,-18 -34,-16 -34,5c0,9 -9,85 -20,167c-18,137 -48,369 -115,890c-14,105 -41,314 -60,465c-20,151 -49,376 -65,500c-16,124 -43,336 -60,473c-18,136 -29,257 -26,270c7,27 66,121 72,115c2,-3 22,-166 44,-364zm-306,-431c15,-120 43,-339 62,-488c19,-148 43,-333 54,-410l19,-140l-21,-18c-12,-10 -24,-14 -28,-10c-4,4 -12,44 -18,88c-6,44 -43,301 -83,570l-71,490l23,68c12,37 25,67 28,67c4,0 19,-98 35,-217zm5490,131c14,-14 16,-76 16,-535l0,-519l-28,0c-61,0 -60,-15 -64,553l-3,517l32,0c17,0 39,-7 47,-16zm-2189,-179c226,-34 423,-97 618,-197c126,-65 186,-110 326,-244c208,-199 336,-373 456,-619c175,-358 243,-675 329,-1525c39,-381 90,-1072 101,-1355c3,-82 10,-217 16,-300c11,-176 24,-152 -131,-227c-215,-104 -422,-176 -695,-243c-334,-82 -550,-108 -880,-109l-240,-1l2,115c0,63 6,210 12,325c30,557 24,1260 -15,1650c-22,224 -65,496 -89,556c-5,13 18,24 117,58c181,63 338,142 362,181c43,74 -34,180 -132,180c-17,0 -68,-18 -115,-39c-224,-103 -673,-224 -932,-251c-179,-19 -457,-8 -650,27c-105,19 -293,90 -450,171c-181,94 -292,219 -325,367c-18,80 -13,240 10,330c25,99 95,243 159,327c285,375 873,700 1476,814c192,36 464,40 670,9zm3085,-31c36,-15 40,-19 40,-53c2,-273 -4,-897 -9,-923c-1,-9 -53,-10 -75,-2c-14,5 -16,59 -16,500c0,316 4,494 10,494c5,0 28,-7 50,-16zm437,-549l36,-15l-7,-828c-8,-1055 -9,-1086 -47,-1177c-62,-149 -59,-179 -53,475c2,327 7,658 9,735c2,77 4,294 5,483c0,228 3,342 10,342c6,0 27,-7 47,-15zm-6014,-249c6,-81 4,-89 -25,-153l-32,-68l-12,100c-19,160 -19,167 19,191c17,12 35,20 38,18c3,-2 9,-42 12,-88zm-618,-603c9,-82 79,-626 115,-893c54,-413 58,-472 34,-447c-3,3 -26,142 -50,309c-156,1078 -155,1071 -142,1079c27,18 36,8 43,-48zm720,-458c6,-25 35,-296 35,-329c0,-28 -36,-54 -52,-38c-5,5 -18,90 -28,188c-11,99 -22,202 -25,229l-6,50l35,-40c20,-22 38,-49 41,-60zm807,-377c11,-10 18,-50 27,-158c15,-195 17,-180 -24,-180c-42,0 -41,-3 -55,173c-14,179 -14,177 13,177c13,0 30,-6 39,-12zm792,-15c2,-10 7,-70 11,-133c3,-63 12,-205 20,-315c28,-404 29,-455 12,-455c-19,0 -21,15 -43,300c-8,118 -23,304 -33,413c-9,109 -15,200 -12,202c11,12 40,3 45,-12zm-1880,-192c6,-9 44,-329 91,-766c14,-132 28,-259 31,-283l5,-43l-25,16c-19,13 -26,26 -26,49c0,63 -43,478 -76,732c-19,144 -34,271 -34,283c0,21 24,29 34,12zm5771,-418l-7,-418l-25,-37c-57,-84 -54,-100 -51,368l2,429l37,38c20,20 40,37 44,37c3,0 3,-188 0,-417zm-925,-663c5,-581 4,-626 -12,-644c-10,-11 -19,-18 -22,-15c-7,8 -17,1275 -9,1282c4,4 14,6 23,5c13,-3 16,-74 20,-628zm-3266,398c7,-62 32,-359 42,-499c6,-94 6,-97 -16,-104c-12,-4 -26,-3 -30,2c-7,7 -29,229 -56,571l-7,82l31,0c29,0 31,-2 36,-52zm-786,-350c7,-7 12,-32 12,-57c0,-26 12,-161 25,-301c38,-383 41,-435 24,-425c-26,15 -49,38 -44,44c2,4 -2,54 -10,111c-7,58 -16,152 -20,210c-4,58 -13,164 -21,235c-19,175 -18,195 4,195c10,0 23,-5 30,-12zm473,-673c3,-22 9,-104 13,-182c7,-150 4,-161 -37,-130c-12,9 -20,47 -32,161c-21,206 -22,198 17,194c29,-3 33,-7 39,-43z"/>
    <path stroke="null" id="svg_26" d="m170732.83065,-106916.844238c-104,-45 -112,-186 -14,-236c71,-36 143,-19 180,43c70,114 -44,246 -166,193z"/>
    <path stroke="null" id="svg_27" d="m171410.83065,-107012.844238c-96,-59 -96,-201 0,-260c95,-57 218,18 218,132c0,110 -126,184 -218,128z"/>
   </g>
  </g>

  <g stroke="null" id="svg_55">
   <path stroke="null" id="svg_50" fill="url(#svg_49)" d="m358.850769,289.700192l0,15.133464c0,2.550935 64.688553,6.823301 106.835027,15.133464c20.359799,-4.015097 35.463448,-8.970834 35.463448,-15.133464l0,-15.133464c0,-6.15932 -15.103649,-11.118367 -35.463448,-15.133464c-42.14703,8.311582 -106.835027,12.584421 -106.835027,15.133464"/>
   <path stroke="null" id="svg_51" fill="url(#svg_48)" d="m358.850769,229.166334l0,15.133464c0,2.550935 64.688553,6.823301 106.835027,15.133464c20.359799,-4.015097 35.463448,-8.970834 35.463448,-15.133464l0,-15.133464c0,-6.15932 -15.103649,-11.118367 -35.463448,-15.133464c-42.14703,8.311582 -106.835027,12.584421 -106.835027,15.133464"/>
   <path stroke="null" id="svg_52" fill="url(#svg_47)" d="m358.850769,259.433263l0,45.400393c0,-3.783366 142.298475,-11.350098 142.298475,-30.266929l0,-45.400393c0,18.91683 -142.298475,26.483563 -142.298475,30.266929"/>
   <path stroke="null" id="svg_53" fill="url(#svg_46)" d="m358.850769,198.899406l0,45.400393c0,-3.783366 142.298475,-11.350098 142.298475,-30.266929l0,-45.400393c0,18.91683 -142.298475,26.483563 -142.298475,30.266929"/>
   <path stroke="null" id="svg_54" fill="url(#svg_45)" d="m358.850769,319.96712l0,45.400393c0,-3.783366 142.298475,-11.350098 142.298475,-30.266929l0,-45.400393c0,18.91683 -142.298475,26.483563 -142.298475,30.266929"/>
  </g>
 </g>
</svg>