<svg width="580" height="400" xmlns="http://www.w3.org/2000/svg">
 <!-- Created with Method Draw - http://github.com/duopixel/Method-Draw/ -->

 <g>
  <title>background</title>
  <rect fill="#fff" id="canvas_background" height="402" width="582" y="-1" x="-1"/>
  <g display="none" overflow="visible" y="0" x="0" height="100%" width="100%" id="canvasGrid">
   <rect fill="url(#gridpattern)" stroke-width="0" y="0" x="0" height="100%" width="100%"/>
  </g>
 </g>
 <g>
  <title>Layer 1</title>
  <filter transform="matrix(0.017777779632144552,0,0,0.017777779632144552,0,0) " y="19" x="16" width="897" height="968" filterUnits="userSpaceOnUse" color-interpolation-filters="sRGB" id="svg_4">
   <feGaussianBlur stdDeviation="4.5"/>
  </filter>
  <g stroke="null" id="svg_9">
   <g stroke="null" transform="matrix(0.22255620946659,0,0,0.24514606913626383,-3250.4481370405992,-2449.893475850142) " id="svg_6" filter="url(#svg_4)">
    <path stroke="null" id="svg_7" fill-rule="evenodd" fill="#fff" d="m15890.452808,9976.713298c-35.733,17.9669 -111.058,52.9466 -151.864,80.8508c-40.806,27.905 -35.733,53.901 -53.599,71.868s-71.465,62.884 -107.1982,89.834c-35.7327,26.951 -26.7995,98.818 -35.7327,125.769c-8.9332,26.95 -26.7995,89.834 -35.7327,116.785c-8.9332,26.95 17.8663,62.884 35.7327,98.818c17.8664,35.933 62.5319,134.751 80.3989,170.685c17.866,35.934 71.465,17.967 116.131,53.901s107.198,80.851 151.864,107.801c44.666,26.951 62.532,26.951 107.198,0c44.666,-26.95 107.198,-71.867 151.864,-107.801s98.265,-17.967 116.131,-53.901c17.867,-35.934 62.533,-134.752 80.399,-170.685c17.866,-35.934 44.666,-71.868 35.733,-98.818c-8.934,-26.951 -26.8,-89.835 -35.733,-116.785c-8.933,-26.951 0,-98.818 -35.733,-125.769c-35.732,-26.95 -77.21,-61.265 -107.198,-89.834c-29.987,-28.569 -17.866,-44.917 -53.599,-71.868c-35.733,-26.9501 -116.131,-62.8839 -151.864,-80.8508s-71.465,-17.9669 -107.198,0z" clip-rule="evenodd"/>
   </g>
   <path stroke="null" id="svg_8" fill-rule="evenodd" fill="#bf4722" d="m257.990902,34.0684l37.20984,27.977295c0.839927,0.616052 1.820732,0.953373 2.827577,0.972249c1.00818,-0.00809 1.991878,-0.346391 2.827577,-0.972249l37.238105,-28.071431c1.44706,-1.141155 2.244924,-3.043488 2.099818,-5.006128c-0.145107,-1.962885 -1.211596,-3.695577 -2.806656,-4.560207l-37.20984,-20.292922c-1.411674,-0.754413 -3.056142,-0.754413 -4.467593,0l-37.096782,20.292922c-1.623993,0.869288 -2.704503,2.635565 -2.832918,4.630319c-0.128415,1.994999 0.714851,3.913757 2.210873,5.030152zm52.676384,36.759408c0.002893,1.855265 0.827464,3.590654 2.205532,4.641841l29.830099,22.457341c1.909532,1.450284 4.4647,1.268876 6.192181,-0.439302l25.023553,-24.652624c1.115229,-1.097519 1.734381,-2.686801 1.69076,-4.339821s-0.745786,-3.199646 -1.916877,-4.222641l-23.892522,-21.04579c-1.736606,-1.51966 -4.159353,-1.621151 -5.994329,-0.25103l-30.932865,23.304076c-1.353809,1.03231 -2.175042,2.726024 -2.205532,4.54795zm-74.193786,30.549123c1.205587,1.192881 1.825406,2.952539 1.668281,4.736222c-0.15668,1.793979 -1.097202,3.388164 -2.516666,4.265542l-17.813176,11.761863c-1.805754,1.188713 -4.085687,1.017356 -5.730266,-0.430967c-1.644557,-1.448323 -2.312159,-3.872572 -1.677851,-6.093106l6.587998,-22.833395c0.516998,-1.809178 1.826964,-3.203324 3.477886,-3.70097c1.649809,-0.529025 3.428924,-0.065209 4.69371,1.223034l11.310084,11.071777zm96.615879,2.3838l-32.205219,-24.276325c-1.71168,-1.268386 -3.943473,-1.268386 -5.655153,0l-32.205219,24.276325c-1.281034,0.976662 -2.092473,2.546087 -2.205532,4.265542c-0.083459,1.731712 0.539476,3.413169 1.696546,4.579329l32.176954,31.709644c0.928059,0.911698 2.125189,1.414003 3.364827,1.411551c1.23897,-0.00049 2.435433,-0.502304 3.364827,-1.411551l32.176954,-31.709644c1.160408,-1.161257 1.775553,-2.849578 1.668281,-4.579329c-0.089913,-1.719455 -0.894231,-3.295253 -2.177267,-4.265542zm-85.899575,-6.273043l-24.995288,-24.652624c-1.124577,-1.125466 -1.745286,-2.743185 -1.696546,-4.422435c0.027152,-1.655226 0.72264,-3.209207 1.894398,-4.234163l23.892522,-21.171305c1.748847,-1.515248 4.176267,-1.616493 6.022594,-0.250784l30.9046,23.30383c1.434375,1.036232 2.299451,2.806187 2.299451,4.704843s-0.865076,3.668611 -2.299451,4.704598l-29.801834,22.457096c-1.921328,1.44391 -4.479834,1.263483 -6.220446,-0.439057zm128.340599,35.410859l-25.447745,-16.780003c-1.889725,-1.254658 -4.295335,-1.000441 -5.937577,0.627084l-31.102675,30.580746c-1.311969,1.290694 -1.928227,3.242547 -1.628666,5.159099s1.471987,3.52471 3.098873,4.250343l43.147863,19.25794c0.591777,0.270641 1.226062,0.409394 1.866134,0.407678c2.002561,0.006864 3.8204,-1.296332 4.637181,-3.324671l13.37407,-32.99568c1.088522,-2.611051 0.221666,-5.712394 -2.007457,-7.182535zm3.534193,-40.115458l6.588109,22.833395l-0.056529,0c0.487176,1.708178 0.210538,3.571288 -0.745118,5.015689c-0.955434,1.444155 -2.474825,2.295793 -4.089915,2.292361c-0.906026,0.003432 -1.795583,-0.2677 -2.572972,-0.783977l-17.841664,-11.761863c-1.390086,-0.895764 -2.297893,-2.488478 -2.431649,-4.265542c-0.166472,-1.785154 0.454905,-3.549225 1.668281,-4.736222l11.310084,-11.102911c1.277695,-1.261277 3.043234,-1.721416 4.69371,-1.223279c1.649809,0.519219 2.955546,1.920474 3.477663,3.732349zm-94.382082,59.686939c0.304012,-1.908707 -0.306015,-3.855657 -1.611752,-5.143655l-31.102453,-30.580746c-1.642465,-1.627525 -4.048075,-1.881741 -5.9378,-0.627084l-25.447745,16.780003c-2.203306,1.476515 -3.075059,4.538634 -2.035722,7.151156l13.402335,32.99568c1.110333,2.751274 3.981085,4.038781 6.503315,2.916993l43.119598,-19.25794c1.627331,-0.719259 2.803986,-2.320798 3.110223,-4.234408zm15.268469,9.409442l34.608826,15.431455c1.692095,0.797705 2.861183,2.550745 3.053694,4.579329c0.218995,2.053589 -0.609136,4.072121 -2.149003,5.237791l-34.636868,26.503232c-0.830135,0.642283 -1.815614,0.992106 -2.827577,1.003628c-1.011295,-0.017405 -1.995216,-0.366493 -2.827577,-1.003628l-34.608603,-26.503232c-1.545653,-1.162728 -2.3838,-3.179054 -2.177267,-5.237791c0.231013,-2.049666 1.442164,-3.80099 3.166752,-4.579329l34.608826,-15.431455c1.216937,-0.534418 2.57186,-0.534418 3.788797,0z" clip-rule="evenodd"/>
  </g>
  <g stroke="null" id="svg_18">
   <g stroke="null" id="svg_13" transform="matrix(1.0692474142883608,0,0,-1.0399744274726543,-187.61717210439642,-214.09972116286627) ">
    <g stroke="null" id="svg_14">
     <path stroke="null" id="svg_15" fill="#41b883" d="m327.198351,-392.982283l-22.669,-39.264l-22.669,39.264l-75.491,0l98.16,-170.02l98.16,170.02l-75.491,0z"/>
    </g>
    <g stroke="null" id="svg_16">
     <path stroke="null" id="svg_17" fill="#34495e" d="m327.198351,-392.982283l-22.669,-39.264l-22.669,39.264l-36.227,0l58.896,-102.01l58.896,102.01l-36.227,0z"/>
    </g>
   </g>
  </g>
  <g stroke="null" id="svg_24">
   <path stroke="null" id="svg_22" fill="#744C9E" d="m424.500015,171.277771c-55.903131,0 -101.222214,45.989859 -101.222214,102.722215s45.319083,102.722215 101.222214,102.722215c55.903922,0 101.222214,-45.989859 101.222214,-102.722215s-45.318292,-102.722215 -101.222214,-102.722215zm-79.472091,103.792773l78.416375,79.579221c-43.058981,-0.569787 -77.855699,-35.880549 -78.416375,-79.579221zm97.261895,77.563297l-95.275409,-96.687285c8.08038,-35.856473 39.703623,-62.609992 77.485605,-62.609992c26.410299,0 49.808447,13.075414 64.262663,33.192116l-11.005543,9.85411c-11.724379,-17.063123 -31.204911,-28.230151 -53.257119,-28.230151c-28.077302,0 -51.987097,18.09837 -61.025133,43.426619l83.120045,84.350186c20.185133,-7.417667 35.709299,-24.709508 40.908009,-46.126287l-34.45193,0l0,-15.803171l50.935335,0c0,38.342672 -26.36206,70.434536 -61.69573,78.633053l-0.000791,0.000803z"/>
   <rect stroke="null" transform="matrix(0.7907985494327227,0,0,0.8025173028848247,-488.9079565221364,-323.6799885471555) " id="svg_23" fill="rgba(0, 0, 0, 0)" height="256" width="256" y="616.756496" x="1027.045077"/>
  </g>
 </g>
</svg>